<svg width="32" height="32" viewBox="0 0 32 32" xmlns="http://www.w3.org/2000/svg">
    <g fill="#11BAD5" fill-rule="evenodd">
        <path d="m13.479 25.009 5.16.002v1.34c0 .196-.16.356-.355.356h-4.532a.357.357 0 0 1-.357-.356l-.002-1.36c.03.004.055.018.085.018M16 7.765c-4.06 0-7.364 3.015-7.364 6.722 0 1.73.716 3.37 2.018 4.623l.413.515c.95 1.175.831 2.79.828 2.87v3.856c0 1.023.832 1.856 1.857 1.856h4.531a1.859 1.859 0 0 0 1.856-1.856V24.26a.75.75 0 0 0-.75-.75c-.035 0-.066.015-.1.02-.034-.004-.063-.02-.097-.02l-5.713-.001c-.031 0-.058.014-.087.017v-.963c.008-.09.181-2.226-1.156-3.878l-.444-.552a.606.606 0 0 0-.068-.075c-1.024-.972-1.588-2.24-1.588-3.571 0-2.88 2.63-5.222 5.864-5.222 3.233 0 5.864 2.343 5.864 5.222 0 1.236-.398 2.275-1.228 3.192l-.482.565c-.605.657-1.037 1.526-1.285 2.583a.749.749 0 1 0 1.459.344c.19-.804.503-1.446.948-1.932l.486-.57c1.064-1.173 1.602-2.58 1.602-4.182 0-3.707-3.303-6.722-7.364-6.722M16 5.497a.75.75 0 0 0 .75-.75V2.711a.75.75 0 0 0-1.5 0v2.036c0 .414.336.75.75.75M26.404 6.768a.75.75 0 0 0-1.06 0l-1.44 1.439a.75.75 0 1 0 1.061 1.06l1.44-1.438a.75.75 0 0 0 0-1.061M6.656 6.768a.75.75 0 1 0-1.06 1.06l1.44 1.44a.748.748 0 0 0 1.06 0 .75.75 0 0 0 0-1.061l-1.44-1.44z"/>
    </g>
</svg>
