<svg width="32" height="32" viewBox="0 0 32 32" xmlns="http://www.w3.org/2000/svg">
    <g fill="#E63749" fill-rule="evenodd">
        <path d="M29.25 15.25a.75.75 0 0 0-.75.75c0 6.893-5.607 12.5-12.5 12.5S3.5 22.893 3.5 16 9.107 3.5 16 3.5c3.005 0 5.909 1.082 8.178 3.047a.753.753 0 0 0 1.058-.076.752.752 0 0 0-.076-1.059A14 14 0 0 0 16 2C8.28 2 2 8.28 2 16s6.28 14 14 14 14-6.28 14-14a.75.75 0 0 0-.75-.75"/>
        <path d="M20.53 11.47a.75.75 0 0 0-1.06 0L16 14.94l-3.47-3.47a.75.75 0 1 0-1.06 1.06L14.94 16l-3.47 3.47a.75.75 0 1 0 1.06 1.06L16 17.06l3.47 3.47a.75.75 0 0 0 1.06-1.06L17.06 16l3.47-3.47a.75.75 0 0 0 0-1.06"/>
    </g>
</svg>
