<svg width="32" height="32" viewBox="0 0 32 32" xmlns="http://www.w3.org/2000/svg">
    <g fill="#E05E00" fill-rule="evenodd">
        <path d="M17 22.59a1 1 0 1 1-2 0 1 1 0 0 1 2 0M16 19.653a.75.75 0 0 1-.75-.75V8.567a.75.75 0 0 1 1.5 0v10.336a.75.75 0 0 1-.75.75"/>
        <path d="M16 30C8.28 30 2 23.72 2 16S8.28 2 16 2a14 14 0 0 1 9.16 3.412.752.752 0 0 1 .076 1.059.754.754 0 0 1-1.058.076A12.493 12.493 0 0 0 16 3.5C9.107 3.5 3.5 9.107 3.5 16S9.107 28.5 16 28.5 28.5 22.893 28.5 16a.75.75 0 0 1 1.5 0c0 7.72-6.28 14-14 14"/>
    </g>
</svg>
